<svg xmlns="http://www.w3.org/2000/svg" viewBox="0 0 91.27 85.86"><defs><style>.cls-1{fill:#e2025e;}</style></defs><g id="Capa_2" data-name="Capa 2"><g id="ilustraciiones"><path class="cls-1" d="M23.41,70.55l.31,10.62c0,5.3-7.8,5.3-8.12,0V71.49L8.74,58.38a6.31,6.31,0,0,1-.63-5.31L10,47.76a2,2,0,0,1-1.87.32L3.43,46.51A2.12,2.12,0,0,1,2.18,44L6.86,30.59A2.06,2.06,0,0,1,9.36,29l4.37,1.56a2.24,2.24,0,0,1,1.56,2.81L14.67,35c3.12-4.68,11.23-2.49,10.92,3.75l5.31,6.87,5.93,1.25.63-2.5c.31-1.56,2.81-.94,2.49.62l-.62,2.5c2.81,1.56,1.56,5.93-1.56,6.25l-7.18,30c-.32,1.57-2.81.94-2.5-.62l7.18-30L28.4,51.82a2.84,2.84,0,0,1-1.87-1.25L23.09,46.2,19.35,57.13a23.41,23.41,0,0,0-.94,2.81l4.68,8.74a3.88,3.88,0,0,1,.32,1.87ZM69,67.12l.31,13.73c0,6.56-10,6.56-10,0L59,68.37,50.26,51.51A7,7,0,0,1,49.63,45l2.19-6.86a3.35,3.35,0,0,1-2.5.31L43.7,36.53a2.66,2.66,0,0,1-1.56-3.44l5.62-17.17a2.54,2.54,0,0,1,3.43-1.56l5.62,1.87a2.83,2.83,0,0,1,1.87,3.44l-.93,2.18c4.06-6.24,14.36-3.12,13.73,4.69l6.87,8.74,7.81,1.56.62-3.12c.62-2.19,3.75-1.25,3.12.62l-.62,3.12c3.43,2.19,2.18,7.81-1.88,8.12L78.35,83.67c-.62,2.18-4.06,1.56-3.43-.63L84,45l-8.74-1.87a6.72,6.72,0,0,1-2.5-1.56l-4.06-5.31L64,50a20.61,20.61,0,0,0-1.25,3.75l5.93,10.92a7.62,7.62,0,0,1,.32,2.5ZM72.42,0a9.6,9.6,0,0,1,9.36,9.37,9.52,9.52,0,1,1-19,0A9.67,9.67,0,0,1,72.42,0ZM55.56,66.81,49,82.73C46.2,89,37.14,84.91,39.64,79l10-24,5.93,11.87Zm-29.65-49a7.5,7.5,0,1,1-7.5,7.5,7.61,7.61,0,0,1,7.5-7.5ZM13.11,70.24,7.8,82.73c-2.18,5-9.36,1.87-7.49-2.81l7.8-18.73,5,9Z"/></g></g></svg>