<svg xmlns="http://www.w3.org/2000/svg" viewBox="0 0 86.5 86.5"><defs><style>.cls-1{fill:#e2025e;}</style></defs><g id="Capa_2" data-name="Capa 2"><g id="ilustraciiones"><path class="cls-1" d="M84.43,0H2.07A2.13,2.13,0,0,0,0,2.07V84.43A2.13,2.13,0,0,0,2.07,86.5H84.43a2.13,2.13,0,0,0,2.07-2.07V2.07A2.13,2.13,0,0,0,84.43,0ZM29.85,4.87a2.5,2.5,0,0,1,2.56,2.56,2.56,2.56,0,0,1-5.12,0A2.5,2.5,0,0,1,29.85,4.87ZM19,4.87a2.49,2.49,0,0,1,2.55,2.56,2.56,2.56,0,1,1-5.11,0A2.58,2.58,0,0,1,19,4.87Zm-10.73,0a2.5,2.5,0,0,1,2.56,2.56A2.5,2.5,0,0,1,8.28,10,2.49,2.49,0,0,1,5.73,7.43,2.49,2.49,0,0,1,8.28,4.87ZM80.41,78.34a2.14,2.14,0,0,1-2.07,2.07H8.16a2.14,2.14,0,0,1-2.07-2.07V19.49a2.14,2.14,0,0,1,2.07-2.07H78.34a2.14,2.14,0,0,1,2.07,2.07Z"/><path class="cls-1" d="M60.55,62a3,3,0,0,1-2.31-1.09,3.18,3.18,0,0,1,.24-4.27l7.19-7.19a1.69,1.69,0,0,0,0-2.31L58.48,40a3.17,3.17,0,0,1-.37-4.14,3,3,0,0,1,4.51-.25L73.34,46.3a2.92,2.92,0,0,1,.86,2.19,3.49,3.49,0,0,1-.86,2.19L62.74,61.16a3.77,3.77,0,0,1-2.19.85Z"/><path class="cls-1" d="M26,62a3.12,3.12,0,0,1-2.19-.85L13,50.44a3,3,0,0,1-.86-2.2A3.49,3.49,0,0,1,13,46.05l10.59-10.6a3.18,3.18,0,0,1,4.15-.36,3,3,0,0,1,.24,4.5L20.71,46.9a1.7,1.7,0,0,0,0,2.32l7.19,7.19a3.17,3.17,0,0,1,.24,4.26A2.32,2.32,0,0,1,26,62Z"/><path class="cls-1" d="M36.79,69.32a2.39,2.39,0,0,1-1-.12A3,3,0,0,1,34,65.3L46.78,29.36a3,3,0,1,1,5.73,2.07L39.72,67.25a3.16,3.16,0,0,1-2.93,2.07Z"/></g></g></svg>