<svg xmlns="http://www.w3.org/2000/svg" viewBox="0 0 116.89 86.72"><defs><style>.cls-1{fill:#e2025e;}</style></defs><g id="Capa_2" data-name="Capa 2"><g id="ilustraciiones"><path class="cls-1" d="M0,27.52V76.16A10.79,10.79,0,0,0,10.56,86.72h95.77a10.8,10.8,0,0,0,10.56-10.56V27.52ZM40.72,71.64a2.74,2.74,0,0,1-3.77,0L24.13,58.82a3,3,0,0,1,0-4.15L37,41.85A2.93,2.93,0,1,1,41.1,46L30.54,56.56,41.1,67.12C41.85,69,41.85,70.51,40.72,71.64Zm32.43-32.8L48.64,78.05a3.12,3.12,0,0,1-2.26,1.51,2.26,2.26,0,0,1-1.51-.38A2.67,2.67,0,0,1,44.12,75L68.25,35.82a2.66,2.66,0,0,1,4.14-.75A2.92,2.92,0,0,1,73.15,38.84Zm20,20.36L80.31,72a2.74,2.74,0,0,1-3.77,0,3,3,0,0,1,0-4.15L87.1,57.31,76.54,46.75a2.93,2.93,0,0,1,4.15-4.14L93.51,55.43A2.93,2.93,0,0,1,93.13,59.2Z"/><path class="cls-1" d="M106.33,0H10.56A10.79,10.79,0,0,0,0,10.56V21.49H116.89V10.56A10.8,10.8,0,0,0,106.33,0ZM20,12.44a3,3,0,1,1-6,0V9.05a3,3,0,0,1,3-3,2.77,2.77,0,0,1,3,3Zm12.07,0a3,3,0,1,1-6,0V9.05a3,3,0,0,1,3-3c1.89.38,3,1.51,3,3Zm12.44,0a3,3,0,0,1-3,3,2.78,2.78,0,0,1-3-3V9.05a3,3,0,0,1,3-3,2.77,2.77,0,0,1,3,3Z"/></g></g></svg>