<svg xmlns="http://www.w3.org/2000/svg" viewBox="0 0 131.84 68.48"><defs><style>.cls-1{fill:#e2025e;fill-rule:evenodd;}</style></defs><g id="Capa_2" data-name="Capa 2"><g id="ilustraciiones"><path class="cls-1" d="M81.13,55.81A27.53,27.53,0,0,0,131.84,41a27.81,27.81,0,0,0-19-26.2C100.14,6.37,78.59-2.93,72.26.88a9.29,9.29,0,0,0-3.81,11.41H63.38A9.49,9.49,0,0,0,59.16.88C52.82-2.93,31.69,6.37,18.59,14.82A28,28,0,0,0,0,41,27.41,27.41,0,0,0,27.47,68.48,27.92,27.92,0,0,0,50.71,55.81ZM65.92,34.68a7.5,7.5,0,0,1,7.18,7.61,7.4,7.4,0,0,1-7.18,7.18,7.5,7.5,0,0,1-7.61-7.18A7.58,7.58,0,0,1,65.92,34.68ZM27.46,18.62a22.4,22.4,0,1,1,0,44.79,22.4,22.4,0,0,1,0-44.79Zm76.91,0a22.4,22.4,0,1,0,22,22.4A22.27,22.27,0,0,0,104.37,18.62Z"/></g></g></svg>