<svg xmlns="http://www.w3.org/2000/svg" viewBox="0 0 253.06 262.49"><defs><style>.cls-1{fill:#6c86bd;}.cls-2{fill:#fefefe;}.cls-3{fill:#ececec;}.cls-4{fill:#e2025e;}.cls-5{fill:#191919;}</style></defs><g id="Capa_2" data-name="Capa 2"><g id="ilustraciiones"><path class="cls-1" d="M126.62,131.34a.72.72,0,0,1-.05.33c0-.14-.08-.28-.13-.42v-.05a.47.47,0,0,1,.16-.38l0,.21A1.81,1.81,0,0,1,126.62,131.34Z"/><path class="cls-2" d="M126.62,131.5l-.18-.13a.46.46,0,0,1,.16-.38l0,.2A1.24,1.24,0,0,1,126.62,131.5Z"/><path class="cls-3" d="M126.62,131.34a.72.72,0,0,1-.05.33c0-.14-.08-.28-.13-.42v-.05a.47.47,0,0,1,.16-.38l0,.21A1.81,1.81,0,0,1,126.62,131.34Z"/><path class="cls-1" d="M126.62,131.34a.72.72,0,0,1-.05.33c0-.14-.08-.28-.13-.42v-.05a.47.47,0,0,1,.16-.38l0,.21A1.81,1.81,0,0,1,126.62,131.34Z"/><path class="cls-4" d="M247.4,34.54a18.7,18.7,0,0,0-3.71-2.37C223,22,201.64,13.35,179.27,7.45A213.91,213.91,0,0,0,131.9.09,181.63,181.63,0,0,0,90,3.93C64.11,9.07,39.23,17.49,15,28.07a27.69,27.69,0,0,0-7.76,5.1C2.2,37.89-.73,43.54.16,50.67c.9,7.3,1.89,14.58,2.92,21.87C5.69,91,8.77,109.42,12.49,127.71c-.05.81,8.67,37.15,9.81,39.63a138.59,138.59,0,0,0,7.44,19.95,53.91,53.91,0,0,0,6.33,10.29,286.06,286.06,0,0,0,29.44,32.5A170.28,170.28,0,0,0,92,251c7.72,4.81,15.81,8.76,24.78,10.65a36.92,36.92,0,0,1,4.67.87h7.07a1.48,1.48,0,0,1,.44-.21,65.18,65.18,0,0,0,18.27-5.08c12.74-5.36,24.22-12.8,35-21.39,15.28-12.23,28.61-26.26,39.06-42.89a103,103,0,0,0,12-26.56c.26-.55,8.67-35,8.75-35.62.36-1.9.73-3.8,1.08-5.7,2.19-12,4-24.14,5.48-36.27q1.84-14.89,3.15-29.85c.29-3.26.39-6.54,1-9.78A14.42,14.42,0,0,0,247.4,34.54ZM191.42,94c0-.14-.08-.28-.13-.42v0a.51.51,0,0,1,.16-.38l0,.21a1.18,1.18,0,0,1,.05.31A.72.72,0,0,1,191.42,94Zm29.37,27.82.93-.12A3.09,3.09,0,0,1,220.79,121.8Z"/><path class="cls-5" d="M218.58,169.06a94.06,94.06,0,0,1-8.34,16.67,138.13,138.13,0,0,1-12.72,17.08,155.47,155.47,0,0,1-11.56,12,153.74,153.74,0,0,1-31,22.82,93.55,93.55,0,0,1-19.14,8.06c-9.61,2.76-18.82,1.47-27.83-2.37-9.41-4-17.71-9.75-25.63-16.15A212.74,212.74,0,0,1,62.29,208.2a205.13,205.13,0,0,1-17-20.12c-4.23-5.75-6.64-12.43-9-19.11-.66-1.88-12.54-47.57-13.07-50.4-3-15.7-5.37-31.49-7.58-47.32-.55-4-1.12-7.91-1.49-11.88a16.54,16.54,0,0,1,3.64-11.9,27.74,27.74,0,0,1,11.47-8.59C39.56,34.52,50,30.5,60.55,27.06a266.93,266.93,0,0,1,42.36-10.38q7.78-1.17,15.66-1.66a143.54,143.54,0,0,1,14.37-.13,169.16,169.16,0,0,1,24.15,2.79,259.34,259.34,0,0,1,52.25,16c7.3,3,14.54,6.22,21.54,9.91,5.1,2.69,8.06,6.88,8.07,12.85a8.48,8.48,0,0,1-.23,1.88c-.71,3.17-.69,6.42-1,9.64-.53,5.52-1,11-1.64,16.55q-1.36,12.35-3.2,24.63c-.53,3.54-1,7.07-1.66,10.59C230.82,122.1,218.85,168.33,218.58,169.06Z"/><path class="cls-2" d="M211.13,166a85,85,0,0,1-7.67,15.32A125.08,125.08,0,0,1,191.78,197a141.68,141.68,0,0,1-10.63,11,141.13,141.13,0,0,1-28.48,21,85.74,85.74,0,0,1-17.59,7.41c-8.83,2.54-17.3,1.35-25.58-2.18-8.65-3.68-16.28-9-23.56-14.84A197.2,197.2,0,0,1,67.49,202a189.9,189.9,0,0,1-15.62-18.49c-3.89-5.29-6.1-11.43-8.25-17.57-.61-1.73-11.53-43.71-12-46.32-2.71-14.43-4.93-28.94-7-43.49-.51-3.63-1-7.27-1.37-10.92a15.17,15.17,0,0,1,3.35-10.93,25.49,25.49,0,0,1,10.54-7.9c9.43-4,19-7.7,28.73-10.87a245.71,245.71,0,0,1,38.93-9.53c4.77-.72,9.56-1.24,14.39-1.53q6.62-.39,13.21-.12a155.15,155.15,0,0,1,22.2,2.57,237.8,237.8,0,0,1,48,14.72c6.71,2.8,13.37,5.72,19.8,9.11,4.68,2.47,7.41,6.32,7.42,11.81a8.26,8.26,0,0,1-.21,1.72,69.48,69.48,0,0,0-.92,8.86c-.48,5.08-.95,10.15-1.5,15.22q-1.26,11.34-2.94,22.64c-.49,3.24-1,6.49-1.53,9.73C222.38,122.82,211.38,165.3,211.13,166Z"/><circle class="cls-5" cx="28.99" cy="144.74" r="22.94"/><circle class="cls-4" cx="28.99" cy="144.74" r="16.48"/><circle class="cls-5" cx="224.06" cy="144.74" r="22.94"/><circle class="cls-4" cx="224.06" cy="144.74" r="16.48"/><path class="cls-4" d="M165.48,75.32c1,2.64.27,4.74-1.71,6.7q-16.5,16.38-32.89,32.87A6.13,6.13,0,0,1,125.6,117a7.73,7.73,0,0,1-3.26-2.08q-16.57-16.6-33.18-33.19c-2.76-2.77-2.76-5.58,0-8.36q11-11,21.94-22c.78-.78,1.26-.93,2.1,0,2.29,2.41,4.67,4.73,7,7.07a1.8,1.8,0,0,1,.62,1.86,5.73,5.73,0,0,0,2.75,6.49,1.49,1.49,0,0,1,.79,1.43q0,9.84,0,19.68a1.61,1.61,0,0,1-.89,1.51A5.91,5.91,0,0,0,121,96.15a6,6,0,0,0,11.4.38,6,6,0,0,0-2.12-7,1.62,1.62,0,0,1-.85-1.41c0-6.51,0-13,0-19.55,0-.2,0-.43.26-.61a4.62,4.62,0,0,1,1.34,1.2c1.86,1.83,3.67,3.71,5.56,5.51a2.12,2.12,0,0,1,.7,2.2,5.91,5.91,0,0,0,3.79,6.77,6,6,0,0,0,6.19-10,5.65,5.65,0,0,0-5-1.49,1.89,1.89,0,0,1-1.89-.62q-3.54-3.6-7.14-7.14a1.8,1.8,0,0,1-.62-1.76,5.87,5.87,0,0,0-6.77-6.91,1.82,1.82,0,0,1-1.78-.55c-2.47-2.52-5-5-7.5-7.49-.68-.66-.67-1.06,0-1.71,2-1.92,3.92-3.93,5.91-5.87,2.58-2.53,5.45-2.54,8,0q16.83,16.8,33.64,33.63C164.58,74.21,165,74.78,165.48,75.32Z"/><path class="cls-5" d="M139.67,221.91a3.32,3.32,0,0,1-2.22.07,2.37,2.37,0,0,1-1-2.17c0-3.24-.06-6.48,0-9.71.08-2.95-.38-5.69-2.31-8,0,0,0-.15.06-.24l2-.33c8.74-1.37,13.63-5.67,15.26-13.64,1.17-5.67.89-11.14-3.06-15.86a1.51,1.51,0,0,1-.2-1.53,13.48,13.48,0,0,0,.26-6.25c-.69-3.78-1.37-4.14-5.07-2.91a32,32,0,0,0-5.83,3,2.79,2.79,0,0,1-2.16.35,36.69,36.69,0,0,0-17.49,0,3.07,3.07,0,0,1-2.6-.47,18.12,18.12,0,0,0-8.59-3.36,1.31,1.31,0,0,0-1.6,1.12,12,12,0,0,0-.65,6.33,6.7,6.7,0,0,1-1.35,6c-2.32,3.32-2.22,7.23-2,11.08.44,7.61,4.82,13.22,11.93,15.31a48.44,48.44,0,0,0,4.91,1.12c.94.17.9.45.39,1.09a6.24,6.24,0,0,0-1.37,3.08,2.09,2.09,0,0,1-1.65,1.83c-4.14,1.33-7.54.17-10-3.46a11.29,11.29,0,0,0-2.73-3.11,5.89,5.89,0,0,0-4.6-1.28c-1,.17-1.12.61-.49,1.37a2.85,2.85,0,0,0,.66.59,12.06,12.06,0,0,1,4.87,6.09,8.17,8.17,0,0,0,6,4.93,15.2,15.2,0,0,0,6.51.08c.49-.08,1-.27,1,.58,0,2.27,0,4.54,0,6.81a2.45,2.45,0,0,1-.57,1.38,2.73,2.73,0,0,1-2.63.2,53,53,0,0,1-7.21-3.25A43.4,43.4,0,0,1,94.1,207.52,39.93,39.93,0,1,1,162,165.77c.22.41.45.81.67,1.21a45.61,45.61,0,0,1,3.49,11.79A40,40,0,0,1,139.67,221.91Z"/><path class="cls-2" d="M151.46,187.85c-1.63,8-6.52,12.27-15.26,13.64l-2,.33c0,.09-.09.2-.06.24,1.93,2.35,2.39,5.09,2.31,8-.08,3.23,0,6.47,0,9.71a2.37,2.37,0,0,0,1,2.17,3.14,3.14,0,0,1-1.6.22c-4.12,0-8.23.05-12.35,0-2.18,0-4.35-.24-6.53-.22a4.3,4.3,0,0,1-1-.24,2.45,2.45,0,0,0,.57-1.38c0-2.27,0-4.54,0-6.81,0-.85-.54-.66-1-.58a15.2,15.2,0,0,1-6.51-.08,8.17,8.17,0,0,1-6-4.93,12.06,12.06,0,0,0-4.87-6.09,2.85,2.85,0,0,1-.66-.59c-.63-.76-.5-1.2.49-1.37a5.89,5.89,0,0,1,4.6,1.28,11.29,11.29,0,0,1,2.73,3.11c2.44,3.63,5.84,4.79,10,3.46a2.09,2.09,0,0,0,1.65-1.83,6.24,6.24,0,0,1,1.37-3.08c.51-.64.55-.92-.39-1.09a48.44,48.44,0,0,1-4.91-1.12c-7.11-2.09-11.49-7.7-11.93-15.31-.23-3.85-.33-7.76,2-11.08a6.7,6.7,0,0,0,1.35-6,12,12,0,0,1,.65-6.33,1.31,1.31,0,0,1,1.6-1.12,18.12,18.12,0,0,1,8.59,3.36,3.07,3.07,0,0,0,2.6.47,36.69,36.69,0,0,1,17.49,0,2.79,2.79,0,0,0,2.16-.35,32,32,0,0,1,5.83-3c3.7-1.23,4.38-.87,5.07,2.91a13.48,13.48,0,0,1-.26,6.25,1.51,1.51,0,0,0,.2,1.53C152.35,176.71,152.63,182.18,151.46,187.85Z"/></g></g></svg>