<svg xmlns="http://www.w3.org/2000/svg" viewBox="0 0 134.4 139.41"><defs><style>.cls-1{fill:#e2025e;}.cls-2{fill:#2c245d;}.cls-3{fill:#fefefe;}</style></defs><g id="Capa_2" data-name="Capa 2"><g id="ilustraciiones"><path class="cls-1" d="M131.4,18.34a11,11,0,0,0-2-1.26A187,187,0,0,0,95.22,4,114.13,114.13,0,0,0,70.05.05a96.54,96.54,0,0,0-22.23,2A193,193,0,0,0,8,14.91a14.72,14.72,0,0,0-4.12,2.71c-2.7,2.5-4.26,5.51-3.79,9.29s1,7.75,1.56,11.62c1.38,9.81,3,19.59,5,29.3,0,.43,4.6,19.73,5.21,21a72.88,72.88,0,0,0,4,10.59,27.83,27.83,0,0,0,3.36,5.46A151.44,151.44,0,0,0,34.8,122.2a89.73,89.73,0,0,0,14.08,11.09A40.61,40.61,0,0,0,62,139a20.82,20.82,0,0,1,2.48.46h3.75a1.28,1.28,0,0,1,.24-.11,34.4,34.4,0,0,0,9.7-2.7,78.89,78.89,0,0,0,18.57-11.36,91.54,91.54,0,0,0,20.75-22.78,55,55,0,0,0,6.39-14.1c.13-.29,4.6-18.61,4.64-18.92.19-1,.39-2,.57-3C130.3,60,131.24,53.59,132,47.14q1-7.91,1.68-15.85c.15-1.73.21-3.47.52-5.19A7.65,7.65,0,0,0,131.4,18.34ZM101.67,49.91l-.07-.22v0a.24.24,0,0,1,.08-.2v.11a1.11,1.11,0,0,1,0,.17A.32.32,0,0,1,101.67,49.91Zm15.59,14.78.5-.06A2.2,2.2,0,0,1,117.26,64.69Z"/><path class="cls-2" d="M116.09,89.79a49.79,49.79,0,0,1-4.43,8.85,73.83,73.83,0,0,1-6.75,9.07,83.87,83.87,0,0,1-6.14,6.36A81.93,81.93,0,0,1,82.3,126.19a49.06,49.06,0,0,1-10.16,4.28,21.53,21.53,0,0,1-14.78-1.25,58.09,58.09,0,0,1-13.61-8.58,114,114,0,0,1-10.67-10.06,110.83,110.83,0,0,1-9-10.69c-2.25-3-3.53-6.6-4.77-10.15-.35-1-6.66-25.26-6.94-26.76-1.57-8.35-2.86-16.73-4-25.14-.29-2.1-.59-4.2-.79-6.31a8.78,8.78,0,0,1,1.93-6.32,14.83,14.83,0,0,1,6.1-4.56c5.45-2.32,11-4.45,16.6-6.28A141.4,141.4,0,0,1,54.65,8.86Q58.79,8.23,63,8a74.92,74.92,0,0,1,7.64-.07A89.25,89.25,0,0,1,83.43,9.39a137.19,137.19,0,0,1,27.75,8.51c3.88,1.62,7.73,3.3,11.44,5.26A7.35,7.35,0,0,1,126.91,30a4.7,4.7,0,0,1-.12,1,40.21,40.21,0,0,0-.53,5.12c-.28,2.94-.55,5.87-.87,8.8q-.72,6.56-1.7,13.08c-.28,1.87-.55,3.75-.88,5.62C122.59,64.85,116.24,89.4,116.09,89.79Z"/><path class="cls-3" d="M112.13,88.15a45.18,45.18,0,0,1-4.07,8.14,68,68,0,0,1-6.2,8.34,77.88,77.88,0,0,1-5.65,5.84,75.15,75.15,0,0,1-15.13,11.14,45.09,45.09,0,0,1-9.34,3.93,19.76,19.76,0,0,1-13.58-1.15,53.13,53.13,0,0,1-12.51-7.89,104.49,104.49,0,0,1-9.81-9.24,100.8,100.8,0,0,1-8.29-9.82,34.47,34.47,0,0,1-4.38-9.33c-.33-.92-6.12-23.22-6.38-24.6-1.45-7.67-2.63-15.38-3.7-23.1-.27-1.93-.55-3.86-.73-5.8a8.06,8.06,0,0,1,1.78-5.81,13.38,13.38,0,0,1,5.6-4.19c5-2.13,10.08-4.09,15.26-5.77a129.91,129.91,0,0,1,20.67-5.07q3.8-.57,7.65-.81a68.33,68.33,0,0,1,7-.06,82,82,0,0,1,11.79,1.36,126.43,126.43,0,0,1,25.51,7.82c3.56,1.49,7.09,3,10.51,4.84a6.75,6.75,0,0,1,3.94,6.27,4,4,0,0,1-.11.91,37.23,37.23,0,0,0-.49,4.71c-.26,2.69-.5,5.39-.8,8.08q-.66,6-1.56,12c-.26,1.73-.51,3.46-.81,5.17C118.11,65.23,112.27,87.8,112.13,88.15Z"/><circle class="cls-2" cx="15.4" cy="76.88" r="12.18"/><circle class="cls-1" cx="15.4" cy="76.88" r="8.75"/><circle class="cls-2" cx="119" cy="76.88" r="12.18"/><circle class="cls-1" cx="119" cy="76.88" r="8.75"/><path class="cls-2" d="M67.08,64.26a6.49,6.49,0,0,1-1.29-1.09,46.51,46.51,0,0,1-6.64-7.24,15.7,15.7,0,0,1-1.63-2.84,7.13,7.13,0,0,1,.86-7.53,28.39,28.39,0,0,1,4.52-4.45C65.38,39,68,37,70.44,34.77A22.62,22.62,0,0,0,73.84,31a12.38,12.38,0,0,0,2.22-9.52c0-.25-.17-.51,0-.83a8.26,8.26,0,0,1,1.58,4.08,12.39,12.39,0,0,1-2,8,32.3,32.3,0,0,1-7,7.78A41.13,41.13,0,0,0,63,46.16a8.39,8.39,0,0,0-.83,10.15c1.38,2.43,3,4.72,4.5,7.06A1.73,1.73,0,0,1,67.08,64.26Z"/><path class="cls-1" d="M39.26,95.72,38,95.19c-1.41-1-1.46-1.66,0-2.67a17.19,17.19,0,0,1,10-3.36,3.56,3.56,0,0,1,2.08.61l-3.3.46a12.39,12.39,0,0,0-2.47.61,7.16,7.16,0,0,0-1.09.5c-.46.25-.94.56-.93,1.14s.55.73,1,.94a18.32,18.32,0,0,0,5.67,1.51,114.15,114.15,0,0,0,17.63.8,124.62,124.62,0,0,0,18.81-1.34,24.46,24.46,0,0,0,5.11-1.32,7.92,7.92,0,0,0,1.65-.88,1.6,1.6,0,0,0,.76-1.91,1.3,1.3,0,0,1,.6,2.17,5.06,5.06,0,0,1-1.94,1.28,44.75,44.75,0,0,1-9.14,2.53,106.82,106.82,0,0,1-15,1.65c-4.46.19-8.93.17-13.38-.06a68.39,68.39,0,0,1-12.74-1.58C40.59,96.11,39.93,95.91,39.26,95.72Z"/><path class="cls-2" d="M71.48,66.91a1.15,1.15,0,0,1,.33-.69,5.39,5.39,0,0,0-.18-6.77c-.57-.77-1.18-1.52-1.73-2.3a11.47,11.47,0,0,1-2-4.64,8.73,8.73,0,0,1,2.66-7.73,17.29,17.29,0,0,1,2.83-2.36,38.2,38.2,0,0,1,10.2-4.94,2.77,2.77,0,0,1,1-.15l-.56.36a60.21,60.21,0,0,0-8.36,5.89,15,15,0,0,0-2.6,3,5.07,5.07,0,0,0-.41,5.1,12.91,12.91,0,0,0,1,1.81c.57.85,1.16,1.69,1.75,2.53,1.85,2.7,1.77,5.12-.24,7.69A13.25,13.25,0,0,1,71.48,66.91Z"/><path class="cls-1" d="M56,83.5c-.47,1.22-.27,1.58,1,1.86a28.57,28.57,0,0,0,4.31.56,56.63,56.63,0,0,0,11.49-.44,1.67,1.67,0,0,0,.39-.06,5.68,5.68,0,0,1,5.23.83,12.27,12.27,0,0,0,2.11,1,31.6,31.6,0,0,1-3.66,1,53.87,53.87,0,0,1-13.67,1.56,20.88,20.88,0,0,1-7.95-1.62,5.37,5.37,0,0,1-2-1.37,1.3,1.3,0,0,1,.1-2A6.67,6.67,0,0,1,56,83.5Z"/><path class="cls-1" d="M81.47,78.32a35.27,35.27,0,0,1-5.09,1.3,67.18,67.18,0,0,1-14.57,1.21,32.87,32.87,0,0,1-8.14-1.06,7.77,7.77,0,0,1-2.62-1.14,1.45,1.45,0,0,1-.15-2.52,8,8,0,0,1,3.23-1.71c-.16.26-.32.5-.45.75-.49.94-.23,1.61.79,1.9a19,19,0,0,0,3.18.45,63.8,63.8,0,0,0,20-1,.84.84,0,0,1,.71.06c.49.32,1,.67,1.45,1S80.81,78,81.47,78.32Z"/><path class="cls-1" d="M84.05,68.14c-1,.64-2,1.19-3,1.88a5,5,0,0,1-2.21.49,127,127,0,0,1-17,1.54,69.8,69.8,0,0,1-13.55-.72,12.18,12.18,0,0,1-3.82-1.17c-1.09-.59-1.12-1-.11-1.62a21.75,21.75,0,0,1,8.15-3.1,13.86,13.86,0,0,1,4.27-.29l-.93.28a27.55,27.55,0,0,0-5.07,1.88c-.53.28-1.32.51-1.22,1.26s.9.72,1.46.86a21.59,21.59,0,0,0,4.38.54,125.31,125.31,0,0,0,19.85-.61c2.82-.3,5.63-.69,8.42-1.2C83.83,68.14,83.94,68.15,84.05,68.14Z"/><path class="cls-1" d="M97.25,95.05a5.62,5.62,0,0,1-2.8,2.76,28.12,28.12,0,0,1-8.1,2.46,99.69,99.69,0,0,1-12.56,1.39c-2.71.15-5.43.29-8.15.22a71.58,71.58,0,0,1-15.71-1.83l-1.27-.37.5-.08a173.29,173.29,0,0,0,21.12.82,77.69,77.69,0,0,0,19.84-2.67,25.05,25.05,0,0,0,6.79-3c.1-.07.21-.24.33-.11S97.25,94.92,97.25,95.05Z"/><path class="cls-1" d="M85.13,79.81c.75-.44,1.51-.86,2.24-1.32a19.36,19.36,0,0,0,4.86-4.06,12.52,12.52,0,0,0,1.14-1.66,5.09,5.09,0,0,0-.15-5.57c-1.15-1.88-3-2.33-5-2.11-.52.06-1,.19-1.62.3a.94.94,0,0,1,.67-.59,9,9,0,0,1,6.92-.08A5.6,5.6,0,0,1,97.05,72a8,8,0,0,1-2.37,3.36A21.51,21.51,0,0,1,85.13,79.81Z"/></g></g></svg>