<svg xmlns="http://www.w3.org/2000/svg" viewBox="0 0 87.33 87.33"><defs><style>.cls-1{fill:#e2025e;}</style></defs><g id="Capa_2" data-name="Capa 2"><g id="ilustraciiones"><path class="cls-1" d="M83.69,67.5H80.05V52.58a2.79,2.79,0,0,0-2.73-2.73H46.39V32.75h8.19A5.37,5.37,0,0,0,60,27.29V5.46A5.37,5.37,0,0,0,54.58,0H32.75a5.37,5.37,0,0,0-5.46,5.46V27.29a5.37,5.37,0,0,0,5.46,5.46h8.19v17.1H10a2.8,2.8,0,0,0-2.73,2.73V67.5H3.64A3.65,3.65,0,0,0,0,71.14V83.69a3.65,3.65,0,0,0,3.64,3.64H16.19a3.65,3.65,0,0,0,3.64-3.64V71.14a3.65,3.65,0,0,0-3.64-3.64H12.74V55.31h28.2V67.5H37.3a3.65,3.65,0,0,0-3.64,3.64V83.69a3.65,3.65,0,0,0,3.64,3.64H49.85a3.65,3.65,0,0,0,3.64-3.64V71.14a3.65,3.65,0,0,0-3.64-3.64H46.21V55.31H74.59V67.5H71a3.65,3.65,0,0,0-3.64,3.64V83.69A3.65,3.65,0,0,0,71,87.33H83.69a3.65,3.65,0,0,0,3.64-3.64V71.14a3.65,3.65,0,0,0-3.64-3.64Z"/></g></g></svg>