<svg xmlns="http://www.w3.org/2000/svg" viewBox="0 0 410.82 259.73"><defs><style>.cls-1{fill:#e2025e;}</style></defs><g id="Capa_2" data-name="Capa 2"><g id="ilustraciiones"><path class="cls-1" d="M280,6.39c-2.73,1.82-5.44,3.71-8.09,5.64-2.28,1.62-4.53,3.32-6.74,5-.66.51-1.33,1-2,1.56h0a1.53,1.53,0,0,0-.16.13c-2,1.61-4.05,3.25-6,4.93a261.48,261.48,0,0,0-27.16,26.41c-.63.7-1.26,1.41-1.89,2.14q-6.57,7.55-12.56,15.61c-2.86,3.85-5.63,7.79-8.27,11.82h0c-.78,1.17-1.56,2.37-2.33,3.58A256.89,256.89,0,0,0,190,109.61c-.72,1.45-1.41,2.92-2.08,4.39-.49,1.11-1,2.23-1.51,3.34q-5,11.32-9,23.21c-.55,1.59-1.06,3.2-1.56,4.81A259.42,259.42,0,0,0,169,172.59c-.32,1.66-.63,3.32-.91,5a258.06,258.06,0,0,0-3.36,28.16c-.09,1.64-.19,3.28-.26,4.93q-.27,5.91-.28,11.89,0,4.29.15,8.55c.08,2.93.23,5.85.43,8.77,0,.4,0,.82.08,1.21.08,1.17.17,2.31.27,3.46.33,3.94.74,7.84,1.24,11.73a3,3,0,0,1-3,3.45H150.86a3,3,0,0,1-3-2.67c-.47-4-1.29-11.6-1.57-16,0-.16,0-.33,0-.51-.12-1.87-.22-3.77-.3-5.66-.18-4.1-.27-8.21-.27-12.36q0-8.13.47-16.13.15-3,.4-6,1.09-13.84,3.5-27.3.54-3,1.14-6,2.72-13.33,6.64-26.18c.6-2,1.23-3.95,1.89-5.92q4.28-12.91,9.76-25.24c.83-1.87,1.66-3.72,2.54-5.56a272.4,272.4,0,0,1,13.17-24.69c1-1.66,2-3.28,3-4.91,2.9-4.63,6-9.19,9.14-13.64,2.71-3.78,5.51-7.51,8.41-11.15,1-1.29,2-2.57,3.09-3.83,4.38-5.34,9-10.52,13.74-15.49v0c1.54-1.63,3.12-3.24,4.71-4.83a3,3,0,0,0-2.49-5.19l-.3,0q-10.08,1.25-19.94,3.27a254.7,254.7,0,0,0-32.77,9c-3.77,1.31-7.48,2.68-11.17,4.16a257.51,257.51,0,0,0-27,12.64c-3.5,1.89-6.93,3.87-10.33,5.91q-10.46,6.27-20.23,13.5c-3.2,2.34-6.34,4.78-9.41,7.27C87.89,81,82.34,85.9,77,91c-2.85,2.76-5.65,5.56-8.39,8.45q-7.35,7.74-14.07,16.09-3.7,4.64-7.25,9.44c-4.18,5.73-8.15,11.62-11.85,17.67q-3.1,5.09-6,10.29c-2.88,5.26-5.62,10.63-8.16,16.11-.52,1.09-1,2.21-1.51,3.3q-1.57,3.51-3,7.07a3,3,0,0,1-4.35,1.48L1.54,174.63A3,3,0,0,1,.26,170.8c.15-.37.28-.72.45-1.08s2.65-6.09,2.93-6.69c.37-.81.73-1.61,1.1-2.41l.43-.86c2.85-6.09,5.92-12,9.21-17.87q3.13-5.55,6.5-11,5.45-8.75,11.53-17c2.51-3.42,5.11-6.8,7.77-10.11,4.26-5.3,8.74-10.43,13.37-15.41q4.35-4.68,8.91-9.11,7.44-7.29,15.41-14c3.26-2.74,6.57-5.39,9.94-8q8.75-6.7,18-12.71c3.56-2.31,7.17-4.55,10.86-6.69q10.77-6.31,22.15-11.66c3.84-1.79,7.73-3.52,11.66-5.15A277.35,277.35,0,0,1,182.73,10h0c4.1-1.12,8.23-2.17,12.39-3.11,4.38-1,8.78-1.88,13.23-2.66q9-1.59,18.15-2.59c.56-.06,1.13-.13,1.71-.18A283.63,283.63,0,0,1,257,0h0q10.9,0,21.57.83A3,3,0,0,1,280,6.39Z"/><path class="cls-1" d="M407.81,259.73H183.43a3,3,0,0,1-3-2.68L179,243.48a3,3,0,0,1,3-3.33h92.9c-4.38-6.16-7.1-14.78-7.1-24.34,0-18.7,10.42-33.87,23.28-33.87s23.29,15.17,23.29,33.87c0,9.56-2.72,18.18-7.1,24.34h73.29a3,3,0,0,0,2.83-4l-2.78-8.07-9.51-27.56-1.86-5.37-9.51-27.59-1.82-5.31-9.54-27.68-.47-1.34L346.74,130l-.23-.7a273,273,0,0,0-11.4-27.24c-.78-1.63-1.59-3.24-2.4-4.85a274.62,274.62,0,0,0-15.5-26.66c-1.12-1.7-2.29-3.4-3.45-5.06a282.68,282.68,0,0,0-21.3-27c-.54-.6-1.07-1.19-1.61-1.77q-4.87-5.34-10-10.42a3,3,0,0,1,.38-4.63c3.74-2.54,8.83-5.82,11.63-7.6a3,3,0,0,1,3.75.4q7.83,7.89,15.06,16.34c.5.6,1,1.2,1.53,1.81.71.83,1.42,1.69,2.12,2.54,1.92,2.33,3.85,4.64,5.68,7q8.44,11,16,23.09a283.44,283.44,0,0,1,14.07,25v0c1,2,2,4,2.94,6.05,3.62,7.72,6.92,15.58,9.87,23.64l0,.09.77,2.25,2.21,6.41.57,1.66v.05l8.58,24.87,2.19,6.34,9.18,26.61,2.17,6.3,9.19,26.67,2.16,6.25,9.7,28.17A3,3,0,0,1,407.81,259.73Z"/></g></g></svg>