<svg xmlns="http://www.w3.org/2000/svg" viewBox="0 0 107.77 85.86"><defs><style>.cls-1{fill:#e2025e;fill-rule:evenodd;}</style></defs><g id="Capa_2" data-name="Capa 2"><g id="ilustraciiones"><path class="cls-1" d="M12.07,28.62c1.08-5.72,10.38-5,16.1-3.93a10.68,10.68,0,0,1,8.59,10.37l-2.87-4.65c-5.36-8.94-19-.72-13.59,8.23,3.58,6.08,7.51,12.52,11.09,18.6,1.07,1.79,1.07,2.15.72,3.22l20,6.44c8.23,2.5,5,19-5.37,19H5.63c-7.51,0-7.51-11.45,0-11.45h6.09C10.28,72.26,5.63,69.76,6,62.25c2.51-14,3.58-19.68,6.08-33.63ZM92.56,70.48q-13.95,1.06-10.73,15a9.44,9.44,0,0,1-4.65-9.3c.72-7.51,10.38-9.3,16.1-15.74,3.93,2.86,6.08,7.15,6.8,12.16a17.2,17.2,0,0,1-4.3,12.88q1.08-10.2-3.22-15ZM81.47,39.71c6.8,7.51-1.79,8.94-2.86,12.16C75.75,45.43,83.26,45.08,81.47,39.71ZM75,59c11.09-3.58,15.75-10,14.31-19.32A32.2,32.2,0,0,1,105.8,79.78,25.6,25.6,0,0,0,94,53.66c-2.14,12.88-24.68,11.09-19.67,27.9a16.3,16.3,0,0,1-7.16-14.31A15.35,15.35,0,0,1,75,53.66,13.73,13.73,0,0,0,75,59ZM33.18,0A11.91,11.91,0,0,1,45,11.8a11.81,11.81,0,1,1-23.61,0A11.92,11.92,0,0,1,33.18,0ZM22.09,37.56c-3.94-6.44,6.08-12.52,10-6.08l9.66,16.46,20,1.43c7.51.71,6.79,12.16-.72,11.45L38.19,59.38a5.7,5.7,0,0,1-4.65-3.21C29.6,50.08,26,43.64,22.09,37.56Z"/></g></g></svg>