<svg xmlns="http://www.w3.org/2000/svg" viewBox="0 0 94.99 87.13"><defs><style>.cls-1{fill:#e2025e;fill-rule:evenodd;}</style></defs><g id="Capa_2" data-name="Capa 2"><g id="ilustraciiones"><path class="cls-1" d="M73,37.74a6.56,6.56,0,0,1,2.52,5V80.52a6.87,6.87,0,0,1-6.61,6.61H26.11a6.65,6.65,0,0,1-6.61-6.61V42.78a6.59,6.59,0,0,1,2.52-5,30,30,0,0,0,51,0ZM12.9,74.55A28.15,28.15,0,0,1,0,50.64,29,29,0,0,1,17.61,23.91a31.68,31.68,0,0,0,1.58,7.86A21.16,21.16,0,0,0,7.55,50.64,22.46,22.46,0,0,0,12.9,64.8v9.75Zm68.88,0A28.45,28.45,0,0,0,95,50.64,29,29,0,0,0,77.38,23.91a58.74,58.74,0,0,1-1.58,7.86,20.89,20.89,0,0,1,6,33v9.75ZM47.49,22H25.79A21.71,21.71,0,0,0,69.2,22ZM21.07,0h2.21V15.1H21.07C11,15.1,11,0,21.07,0Zm8.81,0H64.79V15.1H29.88ZM71.71,0h2.21C84,0,84,15.1,73.92,15.1H71.71Z"/></g></g></svg>