<svg xmlns="http://www.w3.org/2000/svg" viewBox="0 0 75.45 84.82"><defs><style>.cls-1{fill:#e2025e;fill-rule:evenodd;}</style></defs><g id="Capa_2" data-name="Capa 2"><g id="ilustraciiones"><path class="cls-1" d="M35.33,4.15c18.81,29.32-11.06,31-1.1,53.1C5.74,33.74,29,26.28,35.33,4.15ZM37.82,69.7,6.29,84.35C1,86.84-2.83,78.55,2.7,76.06L27,64.72,2.7,53.38C-2.83,50.89,1,42.59,6.29,45.08L37.82,59.74,69.07,45.08c5.26-2.49,9.13,5.81,3.88,8.3L48.61,64.72,73,76.06c5.25,2.49,1.38,10.78-3.88,8.29ZM47,0C53,10.23,45,12.72,44.74,19.08,38.65,10,46.67,8.3,47,0Zm4.7,19.64c-21,14.65-1.11,24.06-14.1,36.23C63.54,47.85,49.71,36.23,51.65,19.64Z"/></g></g></svg>