<svg xmlns="http://www.w3.org/2000/svg" viewBox="0 0 86.72 86.72"><defs><style>.cls-1{fill:#e2025e;}</style></defs><g id="Capa_2" data-name="Capa 2"><g id="ilustraciiones"><path class="cls-1" d="M78.05,54.82V75.27a2.78,2.78,0,0,1-2.78,2.78H11.46a2.79,2.79,0,0,1-2.79-2.78V54.82A2.78,2.78,0,0,0,5.89,52H2.78A2.79,2.79,0,0,0,0,54.82V83.94a2.78,2.78,0,0,0,2.78,2.78H83.94a2.77,2.77,0,0,0,2.78-2.78V54.82A2.78,2.78,0,0,0,83.94,52h-3.1A2.79,2.79,0,0,0,78.05,54.82Z"/><path class="cls-1" d="M68,30.35H59.15a2.78,2.78,0,0,1-2.78-2.78V2.78A2.79,2.79,0,0,0,53.59,0H33.14a2.79,2.79,0,0,0-2.79,2.78V27.57a2.77,2.77,0,0,1-2.78,2.78H18.7a2.79,2.79,0,0,0-2.2,4.5l24.66,31.7a2.78,2.78,0,0,0,4.4,0l24.66-31.7A2.79,2.79,0,0,0,68,30.35Z"/></g></g></svg>