<svg xmlns="http://www.w3.org/2000/svg" viewBox="0 0 237 245.83"><defs><style>.cls-1{fill:#6c86bd;}.cls-2{fill:#fefefe;}.cls-3{fill:#ececec;}.cls-4{fill:#2c245d;}.cls-5{fill:#615b84;}.cls-6{fill:#9591ad;}</style></defs><g id="Capa_2" data-name="Capa 2"><g id="ilustraciiones"><path class="cls-1" d="M118.58,123a.62.62,0,0,1,0,.31l-.12-.39a.09.09,0,0,1,0,0,.44.44,0,0,1,.16-.35l0,.19A1.55,1.55,0,0,1,118.58,123Z"/><path class="cls-2" d="M118.58,123.16a1.09,1.09,0,0,0-.17-.13.43.43,0,0,1,.16-.35l0,.19A1.55,1.55,0,0,1,118.58,123.16Z"/><path class="cls-3" d="M118.58,123a.62.62,0,0,1,0,.31l-.12-.39a.09.09,0,0,1,0,0,.44.44,0,0,1,.16-.35l0,.19A1.55,1.55,0,0,1,118.58,123Z"/><path class="cls-1" d="M118.58,123a.62.62,0,0,1,0,.31l-.12-.39a.09.09,0,0,1,0,0,.44.44,0,0,1,.16-.35l0,.19A1.55,1.55,0,0,1,118.58,123Z"/><path class="cls-4" d="M231.7,32.35a17.61,17.61,0,0,0-3.48-2.23C208.8,20.62,188.85,12.5,167.9,7A201.3,201.3,0,0,0,123.53.08a171,171,0,0,0-39.21,3.6C60,8.5,36.74,16.38,14.09,26.29a25.74,25.74,0,0,0-7.27,4.78C2.06,35.48-.68,40.78.15,47.45,1,54.29,1.92,61.11,2.88,67.93c2.45,17.31,5.33,34.55,8.82,51.68,0,.75,8.12,34.79,9.19,37.11a129.39,129.39,0,0,0,7,18.68A51.08,51.08,0,0,0,33.78,185a267.86,267.86,0,0,0,27.58,30.44A158.94,158.94,0,0,0,86.19,235c7.22,4.5,14.8,8.21,23.21,10a36.15,36.15,0,0,1,4.37.82h6.62c.14-.06.27-.18.41-.19a61.33,61.33,0,0,0,17.12-4.76,138.82,138.82,0,0,0,32.74-20c14.32-11.45,26.8-24.59,36.59-40.16a96.42,96.42,0,0,0,11.26-24.88c.23-.51,8.11-32.81,8.19-33.36q.51-2.67,1-5.34c2-11.27,3.72-22.6,5.13-34q1.74-13.95,2.95-27.95c.27-3,.37-6.12.92-9.16A13.45,13.45,0,0,0,231.7,32.35ZM179.28,88c0-.13-.08-.27-.13-.4v0a.49.49,0,0,1,.15-.36l0,.19a1.18,1.18,0,0,1,0,.29A.8.8,0,0,1,179.28,88Zm27.49,26.05.88-.11A3,3,0,0,1,206.77,114.07Z"/><path class="cls-5" d="M204.71,158.33a87.94,87.94,0,0,1-7.82,15.61,128.61,128.61,0,0,1-11.9,16,148.83,148.83,0,0,1-10.83,11.21,144.18,144.18,0,0,1-29,21.37,87.38,87.38,0,0,1-17.92,7.55c-9,2.59-17.62,1.37-26.06-2.22-8.81-3.75-16.59-9.14-24-15.13A199.39,199.39,0,0,1,58.34,195a192,192,0,0,1-15.91-18.85c-4-5.39-6.22-11.64-8.41-17.89-.62-1.77-11.75-44.55-12.25-47.2-2.77-14.71-5-29.5-7.1-44.32-.51-3.7-1-7.41-1.39-11.13a15.48,15.48,0,0,1,3.41-11.14,25.93,25.93,0,0,1,10.74-8c9.62-4.1,19.35-7.86,29.28-11.08a250.32,250.32,0,0,1,39.66-9.72c4.87-.73,9.75-1.25,14.67-1.55A131.44,131.44,0,0,1,124.5,14a157.81,157.81,0,0,1,22.62,2.61,242.38,242.38,0,0,1,48.93,15c6.84,2.86,13.63,5.83,20.18,9.29,4.77,2.51,7.55,6.44,7.56,12a7.91,7.91,0,0,1-.22,1.75,72.15,72.15,0,0,0-.93,9c-.49,5.17-1,10.35-1.53,15.51q-1.29,11.55-3,23.06c-.5,3.31-1,6.63-1.55,9.92C216.17,114.35,205,157.65,204.71,158.33Z"/><path class="cls-2" d="M197.73,155.44a80.5,80.5,0,0,1-7.18,14.35,118.74,118.74,0,0,1-10.94,14.7,134.53,134.53,0,0,1-10,10.31A132.79,132.79,0,0,1,143,214.44a80.62,80.62,0,0,1-16.48,6.94c-8.27,2.38-16.19,1.26-24-2-8.1-3.45-15.25-8.4-22.06-13.91A183.62,183.62,0,0,1,63.2,189.14a179.1,179.1,0,0,1-14.62-17.33c-3.64-4.95-5.71-10.7-7.73-16.44-.57-1.63-10.79-40.95-11.25-43.38C27.05,98.47,25,84.88,23.08,71.25c-.48-3.4-1-6.81-1.29-10.22a14.28,14.28,0,0,1,3.14-10.25,23.87,23.87,0,0,1,9.87-7.39c8.84-3.76,17.78-7.21,26.91-10.18a229.71,229.71,0,0,1,36.45-8.93q6.7-1,13.49-1.43A121.54,121.54,0,0,1,124,22.74a145.17,145.17,0,0,1,20.78,2.4,223,223,0,0,1,45,13.79c6.28,2.63,12.52,5.36,18.54,8.53,4.39,2.32,6.94,5.93,7,11.06a7.33,7.33,0,0,1-.2,1.62,66,66,0,0,0-.86,8.29c-.45,4.76-.88,9.51-1.41,14.25q-1.17,10.63-2.75,21.21c-.46,3-.9,6.08-1.43,9.11C208.27,115,198,154.81,197.73,155.44Z"/><circle class="cls-5" cx="27.15" cy="135.56" r="21.48"/><circle class="cls-4" cx="27.15" cy="135.56" r="15.43"/><circle class="cls-5" cx="209.84" cy="135.56" r="21.48"/><circle class="cls-4" cx="209.84" cy="135.56" r="15.43"/><path class="cls-4" d="M179.6,157.54a13.22,13.22,0,0,1-5.13,5.36l-49.33,28.48a13.31,13.31,0,0,1-13.29,0L62.53,162.9A13.24,13.24,0,0,1,57,156.82l60.66-35Z"/><path class="cls-6" d="M178.59,86.65,57,156.82a13.3,13.3,0,0,1-1.16-5.43V94.44a13.29,13.29,0,0,1,6.65-11.51l49.32-28.48a13.31,13.31,0,0,1,13.29,0l49.33,28.48A13.26,13.26,0,0,1,178.59,86.65Z"/><path class="cls-5" d="M181.11,94.44v56.95a13.19,13.19,0,0,1-1.51,6.15L117.7,121.8l60.89-35.15A13.29,13.29,0,0,1,181.11,94.44Z"/><path class="cls-2" d="M161.61,146.37a1.34,1.34,0,0,1-.12.33,50.75,50.75,0,0,1-10,11.68,46.37,46.37,0,0,1-70-12.52c-.29-.49-.57-1-.86-1.49l-.14-.24a47.93,47.93,0,0,1-4.78-16c-1.35-13.11,2.08-24.84,10.51-35,8-9.54,18.22-15.2,30.57-16.31,18.44-1.65,33,5.42,43.66,20.57.2.29.43.56.64.84a1.9,1.9,0,0,1,.21.35c.31.67,0,1.08-.8,1.51q-9,5.1-18,10.31c-.77.44-1.27.47-1.69-.35a2.84,2.84,0,0,1-.61-.28,4.24,4.24,0,0,1-1-.9c-5-6-11.47-8.94-19.24-8.35a22.32,22.32,0,0,0-20.5,19.83c-.45,4.38,1,10.26,1.55,12.43.1.21.18.43.29.64a23,23,0,0,0,24.85,12,22.15,22.15,0,0,0,14.74-10l-.34-.11a1.16,1.16,0,0,1,.5-.14.77.77,0,0,1,1.19-.23q9.45,5.33,18.93,10.6C161.54,145.8,161.68,146.05,161.61,146.37Z"/></g></g></svg>